<svg width="34" height="34" viewBox="0 0 34 34" fill="none" xmlns="http://www.w3.org/2000/svg">
<path fill-rule="evenodd" clip-rule="evenodd" d="M4 0C1.79086 0 0 1.79086 0 4V30C0 32.2091 1.79086 34 4 34H30C32.2091 34 34 32.2091 34 30V4C34 1.79086 32.2091 0 30 0H4ZM29.4679 11.8998C29.3731 9.89716 28.9158 8.1232 27.4489 6.66164C25.9877 5.20007 24.2141 4.74264 22.2119 4.64222C20.1483 4.52507 13.9632 4.52507 11.8996 4.64222C9.90293 4.73706 8.12936 5.19449 6.66255 6.65606C5.19573 8.11762 4.74398 9.89158 4.64359 11.8943C4.52646 13.9583 4.52646 20.1448 4.64359 22.2089C4.7384 24.2116 5.19573 25.9855 6.66255 27.4471C8.12936 28.9087 9.89735 29.3661 11.8996 29.4665C13.9632 29.5837 20.1483 29.5837 22.2119 29.4665C24.2141 29.3717 25.9877 28.9142 27.4489 27.4471C28.9102 25.9855 29.3675 24.2116 29.4679 22.2089C29.585 20.1448 29.585 13.9639 29.4679 11.8998ZM25.2236 10.3825C25.2236 11.2137 24.5544 11.8775 23.7289 11.8775C22.8979 11.8775 22.2342 11.2081 22.2342 10.3825C22.2342 9.55687 22.9035 8.88745 23.7289 8.88745C24.5544 8.88745 25.2236 9.55687 25.2236 10.3825ZM23.411 17.0599C23.411 20.5722 20.5644 23.4194 17.053 23.4194C13.5415 23.4194 10.6949 20.5722 10.6949 17.0599C10.6949 13.5477 13.5415 10.7005 17.053 10.7005C20.5644 10.7005 23.411 13.5477 23.411 17.0599ZM17.053 21.2996C19.3939 21.2996 21.2917 19.4014 21.2917 17.0599C21.2917 14.7184 19.3939 12.8203 17.053 12.8203C14.712 12.8203 12.8142 14.7184 12.8142 17.0599C12.8142 19.4014 14.712 21.2996 17.053 21.2996Z" fill="white"/>
</svg>
