<svg width="34" height="34" viewBox="0 0 34 34" fill="none" xmlns="http://www.w3.org/2000/svg"><path fill-rule="evenodd" clip-rule="evenodd" d="M4 0a4 4 0 0 0-4 4v26a4 4 0 0 0 4 4h26a4 4 0 0 0 4-4V4a4 4 0 0 0-4-4H4zm25.468 11.9c-.095-2.003-.552-3.777-2.02-5.238-1.46-1.462-3.234-1.92-5.236-2.02-2.064-.117-8.249-.117-10.312 0-1.997.095-3.77.552-5.237 2.014-1.467 1.462-1.919 3.236-2.02 5.238-.117 2.064-.117 8.25 0 10.315.095 2.003.553 3.776 2.02 5.238 1.466 1.462 3.234 1.92 5.237 2.02 2.063.117 8.248.117 10.312 0 2.002-.095 3.776-.553 5.237-2.02 1.461-1.462 1.918-3.235 2.019-5.238.117-2.064.117-8.245 0-10.31zm-4.244-1.518c0 .832-.67 1.495-1.495 1.495a1.495 1.495 0 1 1 1.495-1.495zM23.41 17.06a6.359 6.359 0 1 1-12.716 0 6.359 6.359 0 1 1 12.716 0zm-6.358 4.24a4.24 4.24 0 1 0-.001-8.479 4.24 4.24 0 0 0 .001 8.479z" fill="#fff"/></svg>